<svg xmlns="http://www.w3.org/2000/svg" width="99.15" height="43.897" viewBox="0 0 99.15 43.897"><defs><style>.a{fill:#0f206c;}.b{fill:#ed1c24;}</style></defs><g transform="translate(0 0)"><g transform="translate(0 0)"><path class="a" d="M7.835,13.3h5.152L9.769,5.007,3.408,21.282H0L8.464,0H11.1L19.61,21.282H16.178l-1.934-4.838H6.578Z"/><path class="a" d="M83.762,353.255H80.62V338.986q0-4.6,4.592-4.6h4.834q4.6,0,4.6,4.6v6.043q0,4.592-4.6,4.592H84.729v-3.142h5.309a1.282,1.282,0,0,0,1.45-1.45v-6.043a1.282,1.282,0,0,0-1.45-1.45H85.2a1.282,1.282,0,0,0-1.45,1.45Z" transform="translate(-59.532 -328.347)"/><path class="a" d="M122.252,353.255H119.11V338.986q0-4.6,4.592-4.6h4.834q4.592,0,4.592,4.6v6.043q0,4.592-4.592,4.592h-5.317v-3.142h5.321a1.282,1.282,0,0,0,1.45-1.45v-6.043a1.282,1.282,0,0,0-1.45-1.45h-4.834a1.282,1.282,0,0,0-1.45,1.45Z" transform="translate(-82.516 -328.347)"/><path class="a" d="M161.352,343.579q-4.592,0-4.592-4.592t4.592-4.6h7.013v3.146h-7.013a1.45,1.45,0,1,0,0,2.9h3.626q4.592,0,4.592,4.6t-4.592,4.592H156.76l.991-3.142h7.231a1.452,1.452,0,0,0,0-2.9Z" transform="translate(-105 -328.347)"/><path class="a" d="M148.95,0h15.066V3.142h-5.877v18.14H155V3.142H148.95Z" transform="translate(-88.948)"/><path class="a" d="M217.764,346.489l-1.12,3.142h-8.222q-4.592,0-4.592-4.592V339q0-4.6,4.592-4.6h4.834q4.592,0,4.6,4.6v.048q0,4.544-4.6,4.544h-5.33v-3.142h5.321a1.261,1.261,0,0,0,1.45-1.4V339a1.282,1.282,0,0,0-1.45-1.45h-4.834a1.282,1.282,0,0,0-1.45,1.45v6.043a1.282,1.282,0,0,0,1.45,1.45Z" transform="translate(-133.108 -328.353)"/><path class="a" d="M218.322,13.664l8.633,7.618h-4.741l-5.027-4.717v4.717H214.04V0h3.146V10.784l5.027-4.737h4.741Z" transform="translate(-127.817)"/><path class="b" d="M47.856,401.115V404.4H34.872q-6.6,0-6.6-4.79v-6.518q0-4.834,6.6-4.834H47.856v3.291H34.872c-2.079,0-3.118.508-3.118,1.531V399.6q0,1.507,3.118,1.5Z" transform="translate(-28.27 -360.517)"/><path class="b" d="M93.472,391.563c-2.079,0-3.118.508-3.118,1.531v6.518q0,1.507,3.118,1.5h11.65q3.118,0,3.118-1.446v-6.574c0-1.023-1.039-1.531-3.118-1.531Zm11.65-3.291q6.607,0,6.6,4.834v6.574q0,4.737-6.6,4.733H93.472q-6.607,0-6.6-4.79v-6.53q0-4.834,6.6-4.834Z" transform="translate(-63.264 -360.517)"/><path class="b" d="M223.045,391.605v12.838H219.56V388.33h15.485q6.6,0,6.606,4.834v.955q0,4.762-6.606,4.762H224.906v-3.287h10.139q3.118,0,3.118-1.474v-.955q0-1.527-3.118-1.527Z" transform="translate(-142.501 -360.558)"/><path class="b" d="M161.285,391.605v12.838H157.8V388.33h14.369q6.606,0,6.6,4.834v1.076q0,4.762-6.6,4.762h-.4l6.256,5.442h-4.713l-10.164-8.75h9.024c2.079,0,3.118-.5,3.118-1.495v-1.072q0-1.523-3.118-1.523Z" transform="translate(-105.621 -360.558)"/></g></g></svg>