<svg xmlns="http://www.w3.org/2000/svg" width="159.267" height="70.513" viewBox="0 0 159.267 70.513"><defs><style>.a{fill:#0f206c;}.b{fill:#ed1c24;}</style></defs><g transform="translate(0 0)"><g transform="translate(0 0)"><path class="a" d="M12.586,21.367h8.276L15.692,8.043,5.474,34.185H0L13.6,0h4.232L31.5,34.185H25.987l-3.106-7.771H10.567Z"/><path class="a" d="M85.667,364.693H80.62v-22.92q0-7.39,7.377-7.383h7.765q7.383,0,7.383,7.383v9.706q0,7.377-7.383,7.377H87.22v-5.047h8.529a2.059,2.059,0,0,0,2.329-2.329v-9.706a2.059,2.059,0,0,0-2.329-2.329H87.984a2.059,2.059,0,0,0-2.329,2.329Z" transform="translate(-46.745 -324.684)"/><path class="a" d="M124.157,364.693H119.11v-22.92q0-7.39,7.377-7.383h7.765q7.377,0,7.377,7.383v9.706q0,7.377-7.377,7.377H125.71v-5.047h8.548a2.059,2.059,0,0,0,2.329-2.329v-9.706a2.059,2.059,0,0,0-2.329-2.329h-7.765a2.059,2.059,0,0,0-2.329,2.329Z" transform="translate(-60.329 -324.684)"/><path class="a" d="M164.137,349.15q-7.377,0-7.377-7.377t7.377-7.383H175.4v5.054H164.137a2.329,2.329,0,1,0,0,4.659h5.824q7.377,0,7.377,7.383t-7.377,7.377h-13.2l1.592-5.047h11.615a2.333,2.333,0,0,0,0-4.665Z" transform="translate(-73.616 -324.684)"/><path class="a" d="M148.95,0h24.2V5.047H163.71V34.185h-5.047V5.047H148.95Z" transform="translate(-52.567)"/><path class="a" d="M226.213,353.819l-1.8,5.047H211.207q-7.377,0-7.377-7.377v-9.706q0-7.39,7.377-7.383h7.765q7.377,0,7.383,7.383v.078q0,7.3-7.383,7.3h-8.561v-5.047h8.548a2.025,2.025,0,0,0,2.329-2.252v-.078a2.059,2.059,0,0,0-2.329-2.329h-7.765a2.059,2.059,0,0,0-2.329,2.329v9.706a2.059,2.059,0,0,0,2.329,2.329Z" transform="translate(-90.228 -324.687)"/><path class="a" d="M220.918,21.949l13.867,12.236h-7.616l-8.076-7.577v7.577H214.04V0h5.054V17.322l8.076-7.61h7.616Z" transform="translate(-75.538)"/><path class="b" d="M59.731,408.908v5.28H38.876q-10.606,0-10.606-7.694v-10.47q0-7.765,10.606-7.765H59.731v5.287H38.876c-3.339,0-5.008.815-5.008,2.459v10.47q0,2.42,5.008,2.414Z" transform="translate(-28.27 -343.695)"/><path class="b" d="M97.476,393.566c-3.339,0-5.008.815-5.008,2.459v10.47q0,2.42,5.008,2.414h18.714q5.008,0,5.008-2.323v-10.56c0-1.644-1.669-2.459-5.008-2.459Zm18.714-5.287q10.612,0,10.606,7.765V406.6q0,7.61-10.606,7.6H97.476q-10.612,0-10.606-7.694V396.025q0-7.765,10.606-7.765Z" transform="translate(-48.951 -343.695)"/><path class="b" d="M225.157,393.591v20.623h-5.6V388.33h24.874q10.606,0,10.612,7.765v1.534q0,7.648-10.612,7.649H228.147V400h16.287q5.008,0,5.008-2.368v-1.534q0-2.452-5.008-2.452Z" transform="translate(-95.779 -343.72)"/><path class="b" d="M163.4,393.591v20.623h-5.6V388.33h23.081q10.612,0,10.606,7.765v1.728q0,7.649-10.606,7.649h-.647l10.049,8.742h-7.571l-16.326-14.055h14.495c3.339,0,5.008-.8,5.008-2.4v-1.721q0-2.446-5.008-2.446Z" transform="translate(-73.983 -343.72)"/></g></g></svg>